{
	"asset":{
		"generator":"Khronos glTF Blender I/O v4.2.60",
		"version":"2.0"
	},
	"scene":0,
	"scenes":[
		{
			"name":"Scene",
			"nodes":[
				0
			]
		}
	],
	"nodes":[
		{
			"mesh":0,
			"name":"sunflower",
			"rotation":[
				0.70710688829422,
				0,
				0,
				0.7071066498756409
			],
			"scale":[
				0.30000001192092896,
				0.30000001192092896,
				0.30000001192092896
			],
			"translation":[
				0,
				0.39152565598487854,
				0
			]
		}
	],
	"materials":[
		{
			"doubleSided":true,
			"name":"None",
			"pbrMetallicRoughness":{
				"baseColorFactor":[
					0.800000011920929,
					0.800000011920929,
					0.800000011920929,
					1
				],
				"metallicFactor":0,
				"roughnessFactor":0.5
			}
		}
	],
	"meshes":[
		{
			"name":"sunflower",
			"primitives":[
				{
					"attributes":{
						"POSITION":0,
						"NORMAL":1,
						"TEXCOORD_0":2
					},
					"indices":3,
					"material":0
				}
			]
		}
	],
	"accessors":[
		{
			"bufferView":0,
			"componentType":5126,
			"count":684,
			"max":[
				0.6084539890289307,
				0.45397499203681946,
				1.3026560544967651
			],
			"min":[
				-0.6065940260887146,
				-0.4599300026893616,
				-0.6320639848709106
			],
			"type":"VEC3"
		},
		{
			"bufferView":1,
			"componentType":5126,
			"count":684,
			"type":"VEC3"
		},
		{
			"bufferView":2,
			"componentType":5126,
			"count":684,
			"type":"VEC2"
		},
		{
			"bufferView":3,
			"componentType":5123,
			"count":1020,
			"type":"SCALAR"
		}
	],
	"bufferViews":[
		{
			"buffer":0,
			"byteLength":8208,
			"byteOffset":0,
			"target":34962
		},
		{
			"buffer":0,
			"byteLength":8208,
			"byteOffset":8208,
			"target":34962
		},
		{
			"buffer":0,
			"byteLength":5472,
			"byteOffset":16416,
			"target":34962
		},
		{
			"buffer":0,
			"byteLength":2040,
			"byteOffset":21888,
			"target":34963
		}
	],
	"buffers":[
		{
			"byteLength":23928,
			"uri":"ejemplo11.bin"
		}
	]
}
